<svg width="964" height="634" viewBox="0 0 964 634" xmlns="http://www.w3.org/2000/svg">
    <title>Group 2</title>
    <g fill="none" fill-rule="evenodd">
        <path d="M703.737 529.795c9.19 68.74-213.675 113.577-405.5 82.287-191.825-31.29-279.826-153.484-188.29-218.593 91.536-65.11 584.6 67.566 593.79 136.306z" opacity=".505" fill="#F2F2F2"/>
        <path d="M579.06 118.711c-6.08 11.334-5.357 40.082 2.501 42.108 3.134.807 9.81-1.171 16.605-5.267l-4.265 30.173h25.184l-8.67-40.409c4.835-5.675 8.107-12.63 7.56-20.423-1.575-22.456-32.834-17.516-38.914-6.182z" fill="#B28B67"/>
        <path d="M584.736 111.237c.577-.344 1.783-1.07 2.395-1.333.145-.064 1.158-.786 1.185-.777.767.259 2.988 1.214 3.178 2.04.03.062.059.12.087.172.315.572.604 1.158.88 1.752.604 1.303 1.125 2.664 1.624 4.015.97 2.63 1.814 5.323 2.589 8.021.79 2.747 1.46 5.526 2.21 8.284 1.078 3.968 2.46 7.84 3.531 11.807.685 2.533 1.065 5.096.886 7.703l-.006.094-.004.04c-.03.4-.074.802-.132 1.205-.05.344-.102.69-.156 1.036-.98-1.952-1.726-4.103-2.52-6.145-.077-.2-.151-.401-.224-.603a78.036 78.036 0 0 0-.78-1.235c-1.663-2.582-3.332-5.155-4.927-7.784-2.868-4.728-5.709-9.557-9.109-13.899-1.004-1.282-2.031-2.545-3.023-3.837a62.469 62.469 0 0 1-1.645-2.245c-.38-.545-2.033-2.442-1.434-3.582.306-.583 3.898-3.835 5.395-4.729z" fill="#2C2C2C"/>
        <path d="M586.949 109.999c-.561.188-.288-.979.255-1.39 2.517-1.903 12.14-2.593 20.515-.855 5.61 1.165 12.135 4.063 16.615 7.79 4.04 3.359 6.818 8.744 8.248 13.947 1.502 5.463 1.73 11.159.893 16.761-.184 1.23-.579 2.404-.8 3.608-.247 1.356-.374 2.662-.816 3.982-.27.808-.73 1.6-.96 2.412-.264.928-.104 1.785.088 2.728.314 1.537.702 3.071 1.254 4.54.828 2.203 1.834 4.268 2.464 6.555.839 3.044 4.348 12.949 1.783 15.648h-48.811c1.229-3.352 4.918-7.298 5.665-10.887.44-2.115.65-6.732.695-6.9 1.1-7.582 3.248-11.203 4.593-12.517 1.345-1.314 3.137-1.718 3.23-2.858.381-4.715-1.494-9.232-2.868-13.632-1.639-5.244-2.84-10.618-4.529-15.844-.747-2.314-4.602-14.067-7.514-13.088z" fill="#8991DC"/>
        <path d="M622.89 156.22c-10.081 3.157-8.958 9.676-21.655 16.278l1.06.643c11.119-4.588 13.718-14.43 21.334-16.023l-.74-.898zm-8.227-34.195c-1.558 11.814-2.012 18.562-10.128 31.484l.863.264c8.353-11.251 9.677-20.435 10.071-31.683l-.806-.065zm14.094 8.47c-3.43 8.323-4.994 13.238-14.573 19.973l.74.518c9.509-5.389 12.278-11.817 14.554-20.144l-.721-.347zm-24.694-15.072c1.84 5.84 2.236 8.957 1.84 16.937h.903c1.687-7.53.186-14.62-1.608-16.937h-1.135z" fill-opacity=".2" fill="#000"/>
        <path fill="#C5CFD6" d="M664.6 316.887h-81.063L572.915 447h120.67z"/>
        <path fill-opacity=".1" fill="#000" d="M664.6 316.887h-24.93L624.747 447h68.838z"/>
        <path d="m491.12 294.596-.303-.175c-8.675-4.86-22.84 1.74-22.831 9.076.03 22.207 20.297 126.873 21.355 133.49 1.058 6.616 12.394 8.363 13.054.02.61-7.698 1.521-26.39 1.8-44.883l.026-1.912c.16-12.735.004-25.193-.777-33.7a1110.77 1110.77 0 0 0-2.528-24.602c10.634 19.204 27.081 46.702 49.342 82.492l12.084-5.52c-9.49-31.266-17.27-53.338-23.343-66.217a1111.36 1111.36 0 0 0-10.745-22.163l-.554-1.108c-5.694-11.368-10.41-20.195-12.953-24.32-6.455-10.463-17.691-6.812-23.628-.478z" fill="#B28B67"/>
        <path d="m561.478 391.519-41.476-98.254c-9.936-15.984-37.794 3.252-34.406 12.523 7.693 21.046 46.817 89.182 49.109 95.452l26.773-9.721z" fill="#1F28CF"/>
        <path d="M563.697 402.616c2.632 2.158 4.34 3.919 5.127 5.28.946 1.64 2.054 4.188 3.323 7.647l-51.254 29.591c-3.874-3.634-4.477-6.455-1.81-8.463a327.765 327.765 0 0 0 6.602-5.08l17.72-24.414a1 1 0 0 1 1.42-.205l3.716 2.861c3.372-.294 5.888-.92 7.55-1.88 1.363-.787 2.932-2.436 4.704-4.945a2 2 0 0 1 2.902-.392zM505.01 431.58c1.2 3.185 1.8 5.564 1.8 7.137 0 1.892-.315 4.653-.946 8.283h-59.182c-1.538-5.084-.65-7.83 2.663-8.235 3.314-.405 6.066-.771 8.258-1.098l27.554-12.283a1 1 0 0 1 1.331.532l1.788 4.336c3.067 1.431 5.56 2.147 7.478 2.147 1.575 0 3.758-.644 6.547-1.93a2 2 0 0 1 2.71 1.11z" fill="#E4E4E4"/>
        <path d="M465.079 311.046c0 27.877 13.239 92.902 13.247 99.04l28.484.022c-4.17-58.022-5.648-87.345-4.435-87.97 1.818-.937 74.553 7.262 96.367 7.262 31.457 0 44.47-19.836 45.526-56.583h-62.314c-12.688 1.358-78.868 14.706-103.446 19.295-10.522 1.964-13.429 11.255-13.429 18.934z" fill="#2B44FF"/>
        <path d="m674.729 233.416-22.977.086c16.45 53.295 25.645 82.724 27.586 88.284l.114.323c.07.193.125.343.169.45 2.428 6.018-2.71 15.182-4.908 20.106 3.16 1.414 4.776-.108 6.373-1.888l.282-.316c1.929-2.172 3.96-4.489 8.767-2.253.969.451 1.911.946 2.834 1.457l.552.308.274.156.546.312.543.314c6.128 3.553 11.662 7.058 19.278 2.359 1.17-.722 2.453-3.442-.646-5.566-2.611-1.79-5.612-4.036-8.498-6.34l-.75-.603c-5.352-4.324-10.15-8.738-11.101-10.666-2.05-4.159-8.196-33-18.438-86.523zm-145.352 26.243-29.724 28.997c-8.65 3.69-15.735 7.763-21.26 12.221-1.242 1.498-2.594 4.37 3.25 3.085.325-.072.651-.142.977-.212l.652-.138.65-.134c5.09-1.033 9.915-1.643 10.87.011 1.1 1.901-2.138 4.814-.107 7.301 1.353 1.659 5.905-3.616 13.655-15.825l30.91-18.223-9.873-17.083z" fill="#B28B67"/>
        <path d="m604.714 168.236-9.073-1.557c-14.293 50.526-87.732 84.966-92.24 103.854-1.654 6.927 3.331 10.428.756 12.538l11.794 8.633c1.997-2.33 6.259 1.932 15.16-1.05 8.9-2.98 73.603-62.592 73.603-122.418z" fill="#69A1AC"/>
        <path d="m621.049 157.673-28.656 2.004a4 4 0 0 0-3.711 4.27l.769 10.948c1.069 66.94-37.624 84.005-29.009 110.847 7.113 22.16 75.193 45.981 86.973 24.26 4.77-8.794 6.933-19.428 7.178-30.99 3.01 8.883 5.392 16.53 7.144 22.941 3.022 11.06 14.737 12.818 14.737 17.078l15.435-4.26c-1.047-5.788 6.23-8.607 4.279-21.538-8.742-57.939-32.228-99.937-70.46-125.994l-.41-5.854a4 4 0 0 0-4.27-3.712z" fill="#89C5CC"/>
        <path d="M705.523 136.216c-11.608 0-21.067 9.2-21.485 20.705-3.692 14.154-8.241 43.835-3.388 48.577h31.383l.002-.039c11.497-.428 20.686-9.884 20.686-21.485v-26.258c0-11.874-9.626-21.5-21.5-21.5h-5.698z" fill="#191847"/>
        <path d="M688.197 150.429c-6.27 11.689-5.526 41.337 2.579 43.427 3.232.833 10.117-1.208 17.124-5.432l-4.398 31.118h25.972l-8.94-41.674c4.986-5.853 8.36-13.026 7.797-21.063-1.625-23.16-33.863-18.065-40.134-6.376z" fill="#D4A181"/>
        <path d="M708.912 137.298c-11.23 0-15.573 4.682-18.777 9.218l-.276.394c-.274.393-.54.784-.802 1.17 2.518 8.641 12.292 9.922 20.976 15.309a5.952 5.952 0 1 1 3.48 10.567c-1.197 12.853-.718 27.533 2.848 31.017h31.383c.857-14.886-2.764-19.653-6.68-24.01l-.48-.531-.482-.532c-3.775-4.176-7.508-8.702-7.508-22.146-.358-.35-.71-.699-1.057-1.041l-.296-.292-.294-.288a42.68 42.68 0 0 0-1.388-1.306l.035-.841c-5.434-11.125-12.328-16.688-20.682-16.688z" fill="#191847"/>
        <path d="M676.216 354.812c-8.837 0-16 7.164-16 16V473c0 8.837 7.163 16 16 16h127.077c8.837 0 16-7.163 16-16V370.812c0-8.836-7.163-16-16-16H676.216zm18.3 30.3h90.477a4 4 0 0 1 4 4V454.7a4 4 0 0 1-4 4h-90.477a4 4 0 0 1-4-4v-65.587a4 4 0 0 1 4-4z" fill="#C5CFD6"/>
        <path d="M552.91 483.59c21.336-26.055 35.772-45.37 43.309-57.946 12.905-21.534 23.467-40.696 26.8-48.015 7.948-17.454-18.298-25.628-24.238-17.486-8.991 12.322-28.192 51.096-57.603 116.323l11.732 7.123z" fill="#B28B67"/>
        <path d="m596.63 476.014 39.708-99.952c8.492-18.22-32.52-30.197-38.761-21.718-14.17 19.251-47.848 95.194-52.07 100.93l51.124 20.74z" fill="#2F3676"/>
        <path d="M702.384 455.97c-7.734-11.283-35.868-49.242-51.192-64.948-4.404-4.513-8.7-8.845-12.764-12.881-12.08-11.999-36.133 8.168-24.076 19.097 30.026 27.216 73.837 63.958 77.497 67.234 5.13 4.591 15.396-1.412 10.535-8.503z" fill="#D4A181"/>
        <path d="M700.435 450.757c2.744 2.246 4.524 4.076 5.34 5.49.976 1.69 2.119 4.319 3.427 7.886l-52.858 30.518c-3.996-3.748-4.618-6.657-1.868-8.728a338.03 338.03 0 0 0 6.81-5.24l18.294-25.204a1 1 0 0 1 1.42-.205l3.857 2.97c3.478-.303 6.073-.95 7.786-1.938 1.417-.818 3.046-2.536 4.89-5.153a2 2 0 0 1 2.902-.396zm-138.412 28.768c1.254 3.317 1.88 5.792 1.88 7.425 0 1.951-.324 4.8-.975 8.543h-61.035c-1.586-5.244-.67-8.074 2.746-8.493a338.03 338.03 0 0 0 8.517-1.132l28.446-12.682a1 1 0 0 1 1.332.533l1.855 4.501c3.164 1.476 5.735 2.214 7.712 2.214 1.636 0 3.906-.672 6.811-2.017a2 2 0 0 1 2.711 1.108z" fill="#E4E4E4"/>
        <path d="M650.626 381.055c33.002-5.377 55.108-9.053 66.316-11.03 31.949-5.633 41.265-22.825 35.757-60.336h-58.865c-7.79 2.25-40.339 16.162-97.647 41.738-10.31 5.118-8.39 20.21-6.506 25.182.077.203 17.46 29.988 52.147 89.355l48.154-30.676-39.447-50.619c-1.041-2.098-1.011-3.303.09-3.614z" fill="#5C63AB"/>
        <path d="m778.92 296.397-22.614.089c13.963 45.076 21.501 68.993 22.614 71.751 2.504 6.206-2.795 15.657-5.06 20.736 3.55 1.588 5.21-.417 7.013-2.444l.287-.32c1.872-2.073 4.007-3.971 8.604-1.833a48.25 48.25 0 0 1 3.172 1.64l.56.316c.652.37 1.296.746 1.934 1.117l.546.316c5.812 3.365 11.261 6.179 18.568 1.67 1.207-.745 2.53-3.549-.666-5.74-2.389-1.638-5.094-3.645-7.752-5.736l-.758-.6c-5.921-4.711-11.436-9.713-12.477-11.824-2.114-4.29-6.771-27.335-13.97-69.138zm-136.067-4.217-30.655 29.905c-8.92 3.805-16.228 8.006-21.925 12.603a7.461 7.461 0 0 0-.236.3l-.116.16c-1.123 1.596-1.767 3.925 3.704 2.722 6.028-1.325 12.428-2.448 13.56-.488 1.134 1.96-2.204 4.965-.11 7.53 1.395 1.71 6.09-3.73 14.083-16.32l31.877-18.795-10.182-17.617z" fill="#D4A181"/>
        <path d="m714.654 201.505-9.358-1.605c-16.11 40.246-44.238 76.814-84.382 109.705l30.335 36.854c40.14-46.832 64.882-95.15 63.405-144.954z" fill="#191847"/>
        <path d="M755.446 319.1H672.12c19.305-46.938 28.957-86.811 28.957-119.62l25.135-3.745c19.754 31.77 25.333 70.886 29.234 123.366z" fill="#DDE3E9"/>
        <path d="M725.094 195.735c-1.963.067-4.954.19-8.971.365l-6.074 17.357c-.642 21.162-4.394 63.81-11.255 127.943h54.622c-.143 4.43-.38 8.9-.709 13.412h40.615c-6.076-68.54-28.261-121.565-66.558-159.077l-.018.017-.011-.017z" fill="#2F3676"/>
        <path d="M738.131 341.826h15.27c.67-19.864-.529-38.896-3.593-57.097-1.555 27.609-5.447 46.64-11.677 57.097z" fill-opacity=".1" fill="#000"/>
        <path fill-opacity=".2" fill="#FFF" d="m741.258 308.28-26.934-12.522v12.521z"/>
        <path d="M764.878 192.334c-6.624 12.348-5.837 43.669 2.725 45.876 3.414.88 10.688-1.276 18.091-5.739l-4.647 32.874h27.437l-9.445-44.025c5.267-6.183 8.832-13.76 8.236-22.251-1.716-24.465-35.772-19.083-42.397-6.735z" fill="#D4A181"/>
        <path d="M779.753 180.315c-7.698.66-14.572 3.008-16.52 4.402 0 7.288 1.412 9.45 13.473 9.26 2.964 1.565 5.243 4.26 7.616 7.794-1.05 14.629-3.828 21.944-8.335 21.944-6.76 0-12.494-4.29-15.46-4.29-2.162 0-1.68 2.705-.246 4.71 1.182 1.656 6.94 3.251 6.94 5.817 0 1.316-1.196 1.435-2.362 1.444h-.518c-.903 0-1.669.034-1.669.658 0 2.518-.8 7.25 3.57 7.25 4.42 0 17.097-1.61 19.27-8.173 1.402-4.235 2.308-13.01 2.72-26.325a6.86 6.86 0 0 1 5.61 11.716c1.587 2.24 3.366 4.58 5.404 6.995 7.657-4.594 13.34-18.042 5.853-30.961-2.069-6.329-6.753-9.71-12.286-11.279-4.481-1.874-9.133-2.086-13.06-.962z" fill="#191847"/>
        <path d="M751.32 408.244c-8.837 0-16 7.164-16 16V534c0 8.837 7.163 16 16 16h136.049c8.836 0 16-7.163 16-16V424.244c0-8.836-7.164-16-16-16h-136.05zm20.009 32.01h96.03a4 4 0 0 1 4 4v69.737a4 4 0 0 1-4 4h-96.03a4 4 0 0 1-4-4v-69.737a4 4 0 0 1 4-4z" fill="#C5CFD6"/>
        <path d="M621.961 544.284c22.54-27.523 37.79-47.928 45.752-61.214 13.632-22.748 24.79-42.99 28.311-50.722 8.397-18.44-19.33-27.073-25.605-18.473-9.498 13.017-29.781 53.979-60.85 122.884l12.392 7.525z" fill="#BA8B72"/>
        <path d="m668.148 536.282 41.946-105.59c8.972-19.247-34.353-31.9-40.946-22.942-14.97 20.337-50.547 100.562-55.007 106.621l54.007 21.91z" fill="#C5CFD6"/>
        <path d="M779.866 515.106c-8.171-11.919-37.892-52.018-54.08-68.61-4.652-4.767-9.19-9.343-13.484-13.608-12.76-12.675-38.17 8.63-25.434 20.175 31.72 28.751 78.002 67.565 81.868 71.026 5.42 4.85 16.265-1.492 11.13-8.983z" fill="#D4A181"/>
        <path d="M777.71 509.52c2.953 2.41 4.866 4.37 5.738 5.88 1.031 1.785 2.238 4.562 3.62 8.33l-55.84 32.24c-4.22-3.96-4.878-7.033-1.972-9.22a357.095 357.095 0 0 0 7.193-5.535l19.36-26.674a1 1 0 0 1 1.42-.205l4.121 3.174c3.674-.321 6.416-1.004 8.225-2.048 1.514-.874 3.258-2.72 5.232-5.539a2 2 0 0 1 2.902-.402zm-146.165 30.353c1.353 3.564 2.03 6.218 2.03 7.961 0 2.062-.343 5.07-1.03 9.025h-64.478c-1.676-5.54-.709-8.53 2.901-8.971 3.61-.442 6.61-.84 8.997-1.197l30.103-13.42a1 1 0 0 1 1.332.532l1.983 4.81c3.342 1.559 6.057 2.338 8.147 2.338 1.747 0 4.181-.727 7.3-2.18a2 2 0 0 1 2.715 1.102z" fill="#E4E4E4"/>
        <path d="M725.188 435.967c34.864-5.68 58.216-9.564 70.057-11.652 33.75-5.95 43.592-24.113 37.773-63.74h-62.185c-8.229 2.377-42.613 17.074-103.154 44.093-10.892 5.407-8.863 21.35-6.873 26.602.082.215 18.444 31.68 55.088 94.395l50.87-32.407-41.671-53.473c-1.1-2.216-1.069-3.49.095-3.818z" fill="#AFB9C5"/>
        <path d="m860.718 346.534-23.89.094c14.751 47.619 22.715 72.884 23.89 75.798 2.646 6.556-2.952 16.54-5.346 21.905 7.797 3.49 6.966-9.431 16.801-4.855 1.513.703 2.965 1.504 4.383 2.317l.566.326.562.326.28.163.559.324c6.22 3.608 12.02 6.706 19.828 1.888 1.275-.787 2.673-3.75-.704-6.064-8.411-5.768-20.532-15.862-22.17-19.185-2.233-4.53-7.153-28.876-14.759-73.037zm-140.01-.924-36.466 26.778c-9.89 2.669-18.153 5.99-24.79 9.961a7.76 7.76 0 0 0-.498.498l-.138.156c-1.291 1.5-1.939 3.599 3.676 3.167l.697-.052c6.286-.461 12.696-.602 13.56 1.536.898 2.217-3.036 4.869-1.223 7.86 1.209 1.995 6.92-3.006 17.132-15.003l36.111-14.974-8.061-19.927z" fill="#D4A181"/>
        <path d="m792.828 246.29-9.886-1.695c-36.677 31.684-51.742 92.553-96.7 124.797l10.821 13.413c77.993-9.656 97.325-83.902 95.765-136.515z" fill="#E87613"/>
        <path d="M835.92 370.519h-87.467c-3.997 0-3.244-5.771-2.666-8.684 6.668-33.61 32.698-69.84 32.698-117.684l25.23-3.956c20.868 33.562 28.084 74.884 32.205 130.324z" fill="#DDE3E9"/>
        <path d="M805.614 240.195c-.854 0-1.636.053-2.346.16l-7.899.451c-22.66 76.8-28.91 128.04-18.749 153.72l68.844.001c4.079 9.51 7.982 17.513 11.71 24.006h18.758c1.765-57.083-11.806-105.533-40.715-145.349 3.664-1.052 6.566-3.509 8.706-7.369 9.221-16.64 5.89-25.8-3.964-28.812-9.855-3.011-18.643 3.192-34.345 3.192z" fill="#FF9B21"/>
        <path d="M819.915 394.526h25.549c-4.758-11.095-9.755-24.242-14.991-39.443-2.165 18.115-5.684 31.263-10.558 39.443z" fill-opacity=".1" fill="#000"/>
        <path d="M186.634 135.115c6.51 12.142 5.736 42.94-2.677 45.11-3.355.866-10.502-1.254-17.776-5.641l4.566 32.325h-26.96l9.28-43.29c-5.175-6.08-8.679-13.532-8.093-21.88 1.687-24.058 35.15-18.765 41.66-6.624z" fill="#D4A181"/>
        <path d="M175.985 121.891c-3.684-1.124-9.031-1.505-11.281-1.247 1.28-3.068 1.788-6.487 1.374-9.815-.403-3.234-1.847-5.988-3.183-8.874-.615-1.33-1.313-2.652-2.353-3.67-1.06-1.036-2.401-1.72-3.808-2.047-1.439-.334-2.944-.306-4.386-.003-.637.134-1.21.426-1.835.588-.64.166-.951-.235-1.416-.638-1.12-.971-2.763-1.45-4.18-1.623-1.59-.192-3.24.048-4.757.571-1.476.51-2.895 1.336-3.962 2.541-.475.536-.906 1.147-1.187 1.82-.115.277-.134.441-.41.542-.255.094-.553.097-.816.186-2.545.863-4.722 2.83-5.906 5.358-.692 1.474-1.02 4.07-.93 6.979.09 2.909 2.715 10.5 5.17 13.268 2.192 2.471 5.413 4.102 8.521 4.816-2.063 2.36-3.437 5.31-4.452 8.309a40.686 40.686 0 0 0-2.038 10.093c-.24 3.277-.262 6.743.506 9.95.718 3 2.254 5.46 4.818 7.02 1.174.716 2.438 1.253 3.71 1.744 1.252.484 2.508.954 3.82 1.226 2.484.513 5.345.425 7.258-1.553.69-.713 1.447-1.609 1.95-2.48.181-.313.29-.518.07-.824-.263-.367-.688-.648-1.027-.935-1.928-1.636-3.121-3.82-3.422-6.415-.306-2.633.401-6.031 2.96-7.18 3.157-1.419 6.635.21 9.442 1.727 1.192-4.213 3.642-8.006 7.482-9.939 4.248-2.138 9.123-2.388 13.488-4.222 1.138-.478 2.297-1.02 3.134-1.995.35-.407.76-.935.9-1.473.184-.707-.272-1.3-.624-1.852-1.866-2.923-8.946-8.829-12.63-9.953z" fill="#191847"/>
        <ellipse cx="130.307" cy="65.761" rx="86.497" ry="82.623" transform="translate(11.233 348.548)" fill="#C5CFD6"/>
        <path d="M291.045 343.492c5.704 14.78 15.662 63.345 27.627 136.699l-13.677 3.993c-14.393-31.878-24.802-59.636-28.98-74.281-7.154-25.077-12.596-47.142-13.971-55.383-3.28-19.65 25.232-20.794 29-11.028zm-43.15 41.207c-41.638 5.997-100.668 12.19-105.72 12.885-7.08.974-12.43-10.16-4.13-13.442 13.205-5.224 59.45-21.57 81.755-26.195a1207.45 1207.45 0 0 1 18.461-3.68c17.36-3.316 26.354 28.024 9.635 30.432z" fill="#D4A181"/>
        <path d="M185.982 301.335c69.104 17.621 104.417 28.914 105.937 33.878.017.055.032.11.046.165.035.044.069.089.102.134 13.695 18.848 21.897 110.865 24.589 117.755l-26.243 3.918c-3.614-13.41-10.09-25.357-16.858-37.236l-1.13-1.98c-11.7-20.453-23.844-40.94-23.315-68.601a14.627 14.627 0 0 1-.194-3.725l-71.43-36.387v-7.921h8.496z" fill="#DB2721"/>
        <path d="M189.778 301.335c10.012 2.878 62.044 24.714 89.04 36.327 17.868 7.687 12.236 35.395 2.118 42.608-.055.442-.237.743-.562.878-54.43 22.575-97.49 10.73-111.874 14.514l-6.653-21.002 21.571-7.407c-6.534-1.309-12.552-2.477-17.7-3.38-33.267-5.84-42.967-23.659-37.232-62.538h61.292z" fill="#FF4133"/>
        <path d="M142.829 380.797c-3.713.341-6.337.886-7.873 1.635-1.822.889-4.332 2.489-7.532 4.8l27.774 56.946c5.618-.908 7.844-3.051 6.68-6.43a350.659 350.659 0 0 1-2.818-8.461l-1.106-32.354a1 1 0 0 0-1.063-.963l-5.086.32c-2.818-2.279-4.677-4.341-5.577-6.187-.75-1.538-1.155-3.988-1.217-7.35a2 2 0 0 0-2.182-1.956zm155.713 97.22c-1.321 3.486-1.982 6.084-1.982 7.793 0 2.027.337 4.985 1.012 8.874h63.358c1.647-5.447.696-8.388-2.85-8.822a350.659 350.659 0 0 1-8.841-1.176l-29.564-13.19a1 1 0 0 0-1.332.533l-1.941 4.712c-3.284 1.534-5.953 2.3-8.006 2.3-1.711 0-4.091-.71-7.14-2.128a2 2 0 0 0-2.714 1.104z" fill="#E4E4E4"/>
        <path d="m79.865 265.104 18.943 2.751c-20.334 44.117-31.235 67.449-32.704 69.995-3.304 5.73.582 15.708 2.101 20.99-7.677 2.217-5.225-9.644-14.933-6.686-1.442.44-2.844.97-4.217 1.518l-.88.355c-.583.237-1.162.474-1.737.706l-.575.23c-5.826 2.318-11.315 3.897-17.54-1.266-1.078-.895-1.987-3.822 1.442-5.527 8.544-4.248 21.088-12.021 23.038-14.886 2.659-3.907 11.68-26.634 27.062-68.18zm146.194 11.844 32.285 27.37c9.056 3.137 16.551 6.775 22.485 10.915 1.37 1.435 2.95 4.259-3.085 3.368-.44-.065-.88-.129-1.32-.19l-.66-.09-.658-.087-.654-.082c-4.887-.596-9.308-.742-10.112.903-.981 2.011 2.517 4.742.63 7.416-1.259 1.783-6.262-3.257-15.01-15.12l-32.725-16.332 8.824-18.07z" fill="#D4A181"/>
        <path d="m159.039 187.88 11.738-3.88c15.922 39.776 39.669 78.26 79.344 110.767l-9.81 16.927c-34.87-20.54-67.878-36.496-81.272-67.317-4.496-10.345-.367-44.126 0-56.495z" fill="#C5CFD6"/>
        <path d="M118.723 299.825c33.624 3.565 60.09 3.565 79.397 0 2.392-.442 2.77-4.447 1.66-7.165-17.273-42.328-29.12-79.26-29.12-108.66-3.17 1.598-8.718 1.837-16.643.718-21.298 30.298-31.088 65.061-35.294 115.108z" fill="#323337"/>
        <path d="m148.754 181.623-.031.554 8.876.001c2.046 12.033 8.455 173.475 28.108 228.946l.6 1.649H77.424c2.36-49.325 20.982-108.576 39.845-158.158-16.68 15.264-31.218 41.126-43.613 77.587l-20.395-5.235c15.164-65.343 46.341-113.37 93.531-144.083l.307-.706h.789l.866-.555z" fill="#DDE3E9"/>
    </g>
</svg>
