<svg width="460" height="388" viewBox="0 0 460 388" fill="none" xmlns="http://www.w3.org/2000/svg">
<path d="M167.131 105.876C178.247 155.326 137.001 194.349 133.244 197.723C128.107 202.399 89.1608 238.049 51.4408 224.403C7.20414 208.303 6.13081 139.073 5.97747 128.569C5.74747 112.623 5.28747 83.3361 26.2175 63.3261C42.0108 48.2228 62.0975 46.1528 73.9808 44.8494C85.0975 43.6994 112.927 40.7094 137.614 59.2628C159.311 75.6694 165.521 98.9761 167.131 105.876Z" fill="#FF4B33"/>
<path d="M257.597 397.516C248.167 431.71 197.414 447.349 166.747 430.329C149.114 420.516 143.44 402.73 142.597 399.97C132.937 367.846 155.937 327.06 187.064 321.616C206.384 318.243 222.407 329.436 227.927 333.346C245.867 345.843 264.65 371.986 257.597 397.516Z" fill="#FF4B33"/>
<path d="M379.88 42.1661C386.474 59.3395 377.12 81.4961 361.25 91.1562C348.524 98.8228 335.107 96.2928 322.917 93.9162C300.53 89.5462 266.337 74.2895 264.88 50.4461C264.344 41.8595 268.254 35.3428 269.327 33.6561C282.744 11.9595 319.62 15.9461 327.9 16.8661C345.074 18.6295 371.984 21.5428 379.88 42.1661Z" fill="#0B379B"/>
<path d="M430.864 115.843C434.39 133.016 422.2 153.869 404.95 155.019C387.624 156.169 371.37 137.079 374.054 118.603C376.277 103.116 391.534 89.6227 407.327 91.9227C419.977 93.7627 428.717 105.186 430.864 115.843Z" fill="#FF4B33"/>
<path d="M232.143 58.7261C241.573 70.0728 233.217 96.2161 217.347 99.2061C207.687 101.046 195.343 94.2228 192.047 82.9528C188.213 69.6894 198.717 56.4261 210.753 53.3594C217.653 51.6728 227.083 52.6694 232.143 58.7261Z" fill="#0B379B"/>
<path d="M443.361 205.543C454.938 229.156 444.128 262.89 428.181 266.8C418.061 269.253 407.405 259.516 404.721 257.063C393.681 246.943 391.995 233.603 391.151 226.243C389.925 215.126 389.618 186.453 404.721 180.78C417.601 175.95 435.925 190.363 443.361 205.543Z" fill="#0B379B"/>
<path d="M450.106 376.663C448.726 381.416 438.53 415.303 404.337 432.859C377.427 446.659 332.577 451.873 308.503 424.656C287.497 401.043 294.857 367.309 295.853 363.016C301.68 337.946 319.083 324.146 338.863 308.506C361.097 290.949 379.266 276.459 402.19 280.369C430.173 285.123 444.356 313.489 446.426 317.706C459.46 343.696 452.33 368.689 450.106 376.663Z" fill="#FF4B33"/>
<path d="M365.543 195.116C370.987 254.38 322.993 314.41 272.853 315.253C226.853 316.02 192.583 266.723 187.677 259.823C182.31 252.08 173.953 239.89 169.813 221.72C168.433 215.586 158.467 168.513 191.817 131.33C216.043 104.266 253.227 93.533 286.423 100.816C333.267 111.166 361.863 155.096 365.543 195.116Z" fill="#0B379B"/>
<path d="M138.458 274.313C150.341 326.063 122.818 397.363 76.3579 407.329C72.2946 408.173 59.5679 410.779 46.4579 404.799C12.7246 389.466 -3.1454 327.443 20.8513 285.889C43.3146 247.019 99.7413 228.006 124.198 246.176C133.398 253.076 136.005 263.656 138.458 274.313Z" fill="#0B379B"/>
</svg>
