<svg width="114" height="52" viewBox="0 0 114 52" fill="none" xmlns="http://www.w3.org/2000/svg">
<g clip-path="url(#clip0_6_1412)">
<path d="M39.8773 4.69624L41.878 4.86234C42.049 4.8738 42.1801 4.94253 42.277 5.05708C42.3739 5.17736 42.4195 5.32627 42.4024 5.50382L41.0344 22.2396C40.8235 24.7883 39.826 26.7872 38.0362 28.2477C36.2692 29.7083 34.0633 30.344 31.4185 30.1607C30.2044 30.0863 29.0017 29.8572 27.8104 29.4792C26.6419 29.1126 25.633 28.6487 24.7837 28.0816C24.4987 27.8984 24.4702 27.6063 24.7096 27.1996L25.9123 24.9258C26.0662 24.6566 26.3455 24.6108 26.7388 24.7769C28.369 25.5673 29.9593 26.0255 31.5097 26.1572C32.9176 26.2717 34.0804 25.9338 35.0038 25.132C35.9386 24.3244 36.4744 23.219 36.5998 21.8158L36.7594 20.298C35.0779 21.936 33.043 22.652 30.6661 22.4572C29.0644 22.3484 27.6166 21.8215 26.3227 20.8764C25.0288 19.9314 24.0484 18.7172 23.3815 17.2337C22.7146 15.7503 22.4695 14.1924 22.6405 12.5658C22.8685 9.77654 23.8945 7.53709 25.7128 5.8532C27.5482 4.15786 29.7085 3.41328 32.1937 3.61947C33.5047 3.7283 34.6846 4.11204 35.7391 4.77643C36.7936 5.44082 37.6429 6.33431 38.287 7.4569L39.2275 5.03417C39.37 4.77643 39.5866 4.66188 39.8716 4.68479L39.8773 4.69624ZM31.8859 18.0585C33.3508 18.1788 34.6048 17.8122 35.6422 16.9646C36.6796 16.0997 37.2553 14.9771 37.3693 13.5853C37.4833 12.1706 37.0957 10.945 36.2008 9.89682C35.3287 8.86587 34.1545 8.28739 32.6782 8.16711C31.2361 8.04683 29.9992 8.42485 28.9732 9.30116C27.9586 10.1889 27.3886 11.3401 27.2746 12.7548C27.1606 14.1466 27.5425 15.3494 28.4146 16.3689C29.2981 17.3769 30.4552 17.944 31.8859 18.0585Z" fill="#F4F2EF"/>
<path d="M45.3771 14.4332C45.5994 11.7413 46.728 9.54191 48.7686 7.84084C50.8206 6.12832 53.2032 5.37801 55.9221 5.60712C57.6663 5.71594 59.2566 6.26578 60.6987 7.26236C62.1408 8.25895 63.2295 9.53618 63.9762 11.1055C64.7229 12.6749 65.0136 14.3244 64.8312 16.0484C64.7286 17.7781 64.1757 19.3531 63.1839 20.7735C62.1921 22.194 60.9039 23.2765 59.325 24.021C57.7461 24.7656 56.0874 25.0463 54.3489 24.8687C52.5477 24.7198 50.9346 24.1585 49.5153 23.1906C48.1074 22.2226 47.0244 20.9626 46.2663 19.4047C45.531 17.8582 45.2403 16.2087 45.3828 14.4447L45.3771 14.4332ZM49.9941 14.8112C49.8744 16.2946 50.2563 17.5833 51.1512 18.6658C52.0689 19.7483 53.2431 20.3554 54.6852 20.47C56.1387 20.5903 57.387 20.1893 58.4301 19.2672C59.4846 18.3451 60.0717 17.1423 60.1971 15.6589C60.3225 14.1468 59.9349 12.8581 59.0457 11.7871C58.1679 10.7046 56.9994 10.1032 55.5459 9.98293C54.081 9.86265 52.8213 10.2636 51.7611 11.1857C50.7066 12.0964 50.1195 13.3049 49.9941 14.8169V14.8112Z" fill="#213E60"/>
<path d="M67.3907 16.2486C67.613 13.5567 68.7416 11.3573 70.7822 9.65627C72.8342 7.94375 75.2168 7.19344 77.9357 7.42254C79.6799 7.53137 81.2702 8.08121 82.7123 9.07779C84.1487 10.0744 85.2431 11.3516 85.9898 12.9209C86.7365 14.4903 87.0272 16.1398 86.8448 17.8638C86.7422 19.5935 86.1893 21.1686 85.1975 22.589C84.2057 24.0094 82.9175 25.0919 81.3386 25.8365C79.7597 26.581 78.101 26.8617 76.3625 26.6841C74.5613 26.5352 72.9482 25.9739 71.5289 25.006C70.121 24.038 69.038 22.778 68.2799 21.2201C67.5446 19.6737 67.2539 18.0242 67.3964 16.2601L67.3907 16.2486ZM72.002 16.6324C71.8823 18.1158 72.2642 19.4045 73.1591 20.487C74.0768 21.5695 75.251 22.1766 76.6931 22.2911C78.1466 22.4114 79.3949 22.0105 80.438 21.0884C81.4925 20.1662 82.0796 18.9635 82.205 17.48C82.3304 15.968 81.9428 14.6793 81.0536 13.6082C80.1758 12.5258 79.0073 11.9244 77.5538 11.8041C76.0889 11.6838 74.8292 12.0847 73.769 13.0069C72.7145 13.9175 72.1274 15.126 72.002 16.6381V16.6324Z" fill="#213E60"/>
<path d="M110.028 0.899L108.409 20.6818L108.427 20.6646L107.805 28.2536C107.771 28.6545 107.566 28.8378 107.178 28.8034L105.178 28.6373C104.915 28.6144 104.721 28.4655 104.596 28.1906L104.049 25.5903C103.228 26.5926 102.248 27.3372 101.096 27.824C99.9506 28.3108 98.7137 28.4998 97.3913 28.391C94.8776 28.1848 92.8655 27.0966 91.3436 25.1378C89.8217 23.179 89.1719 20.825 89.3999 18.0815C89.6279 15.2922 90.6539 13.0528 92.4722 11.3689C94.3019 9.67354 96.4622 8.92896 98.9531 9.13515C101.319 9.32989 103.177 10.3494 104.528 12.1879L105.445 0.520985C105.474 0.148697 105.673 -0.0231278 106.033 0.00550971L109.492 0.291885C109.874 0.32625 110.051 0.526713 110.023 0.899H110.028ZM98.6111 23.9522C100.019 24.0668 101.256 23.6773 102.322 22.7838C103.399 21.8617 103.998 20.699 104.117 19.2843C104.231 17.8581 103.832 16.6038 102.92 15.5213C102.014 14.4503 100.851 13.8546 99.4376 13.7401C98.0696 13.6255 96.8498 14.0264 95.7839 14.9314C94.7294 15.8421 94.1423 17.0162 94.0283 18.4538C93.9086 19.8799 94.3076 21.1285 95.2082 22.1996C96.1145 23.2592 97.2545 23.8434 98.6225 23.9579L98.6111 23.9522Z" fill="#F4F2EF"/>
<path d="M19.1579 23.5399V43.3857L19.175 43.3686V50.9861C19.175 51.3871 18.9812 51.5875 18.5936 51.5875H16.5872C16.3193 51.5875 16.1198 51.4558 15.9716 51.1866L15.2135 48.6436C14.4782 49.7089 13.5605 50.5337 12.4547 51.1179C11.3489 51.7021 10.1348 51.9884 8.81236 51.9884C6.29296 51.9884 4.19536 51.0721 2.51956 49.245C0.843759 47.4179 0.00585938 45.1269 0.00585938 42.372C0.00585938 39.617 0.843759 37.2573 2.51956 35.4302C4.20676 33.586 6.29866 32.6696 8.79526 32.6696C11.2919 32.6696 13.1045 33.5287 14.6036 35.2527L14.5694 23.5457C14.5694 23.1677 14.7518 22.9844 15.1109 22.9844H18.5822C18.9698 22.9844 19.1636 23.1734 19.1636 23.5457L19.1579 23.5399ZM9.66166 47.458C11.0753 47.458 12.2723 46.9654 13.2584 45.986C14.2616 44.978 14.7575 43.7695 14.7575 42.3491C14.7575 40.9286 14.2559 39.703 13.2584 38.6949C12.2723 37.7041 11.0639 37.2058 9.63886 37.2058C8.21386 37.2058 7.08526 37.7041 6.09346 38.6949C5.11876 39.6858 4.62856 40.9057 4.62856 42.3491C4.62856 43.7924 5.12446 44.9894 6.11056 45.986C7.09666 46.9654 8.28226 47.458 9.65596 47.458H9.66166Z" fill="#F4F2EF"/>
<path d="M22.8633 42.3492C22.8633 39.6458 23.8095 37.3605 25.7019 35.4991C27.6057 33.6205 29.9199 32.6812 32.6502 32.6812C34.4001 32.6468 36.0303 33.0649 37.5408 33.9355C39.0513 34.8061 40.2483 35.9974 41.1204 37.498C41.9925 38.9986 42.4143 40.6195 42.3801 42.3492C42.4143 44.0846 41.9982 45.694 41.1204 47.1946C40.2483 48.6895 39.0513 49.8751 37.5408 50.7457C36.0246 51.6163 34.3944 52.0344 32.6502 52C30.8433 52 29.1903 51.5762 27.6969 50.7285C26.2149 49.8808 25.0293 48.7124 24.1515 47.2233C23.2965 45.7456 22.869 44.119 22.869 42.3549L22.8633 42.3492ZM27.4917 42.3492C27.4917 43.8383 27.9819 45.0869 28.9566 46.095C29.9598 47.103 31.1796 47.6013 32.6274 47.6013C34.0752 47.6013 35.3007 47.0973 36.264 46.095C37.2387 45.0869 37.7289 43.8441 37.7289 42.3492C37.7289 40.8543 37.2387 39.5828 36.264 38.5862C35.3007 37.5782 34.0866 37.0799 32.6274 37.0799C31.1682 37.0799 29.9313 37.5839 28.9566 38.5862C27.9819 39.5771 27.4917 40.8314 27.4917 42.3492Z" fill="#F4F2EF"/>
<path d="M54.664 51.9999C52.9027 51.9999 51.2782 51.5646 49.7791 50.6941C48.2971 49.8349 47.1115 48.6608 46.2337 47.1659C45.3787 45.6882 44.9512 44.0845 44.9512 42.3491C44.9512 41.0547 45.202 39.8061 45.7093 38.6033C46.2166 37.4063 46.9006 36.3753 47.7727 35.5162C48.6505 34.6456 49.6936 33.9583 50.8906 33.4543C52.0876 32.9503 53.3359 32.6982 54.6241 32.6982C55.7812 32.6982 56.944 32.9159 58.1125 33.3512C59.2696 33.775 60.2329 34.3306 61.0081 35.0236C61.276 35.2527 61.3102 35.5334 61.1164 35.8598L59.3779 38.5288C59.281 38.672 59.1499 38.7579 58.9789 38.7808C58.8079 38.8038 58.6597 38.7637 58.5286 38.6548C57.3943 37.6984 56.1175 37.2172 54.6925 37.2172C53.2675 37.2172 52.1104 37.7098 51.1471 38.6892C50.1838 39.6801 49.6993 40.8943 49.6993 42.3262C49.6993 43.7581 50.1895 44.9666 51.1642 45.9631C52.1389 46.954 53.3302 47.4523 54.7267 47.4523C56.1232 47.4523 57.4114 46.9884 58.5058 46.0548C58.6255 45.9574 58.768 45.923 58.9333 45.946C59.0986 45.9689 59.2297 46.0548 59.338 46.198L61.1107 48.7582C61.2076 48.8784 61.2418 49.0274 61.219 49.2049C61.1962 49.3825 61.1164 49.5256 60.9853 49.6345C60.1873 50.3275 59.1898 50.8945 57.9814 51.3413C56.8129 51.7766 55.7014 51.9942 54.6526 51.9942L54.664 51.9999Z" fill="#F4F2EF"/>
<path d="M73.5983 47.6584C73.8377 47.6584 74.0429 47.7271 74.2025 47.8589C74.3678 47.9906 74.4476 48.1567 74.4476 48.3514V51.261C74.4476 51.4787 74.3621 51.6562 74.1968 51.7994C74.0258 51.9369 73.8092 52.0113 73.547 52.0113C71.096 52.0113 69.1979 51.3756 67.847 50.1041C66.4847 48.8096 65.8007 46.9539 65.8007 44.5427V36.9652H63.686C63.3212 36.9652 63.1445 36.7819 63.1445 36.4211V33.6948C63.1445 33.3167 63.3269 33.1335 63.686 33.1335H65.8007V28.0818C65.8007 27.7553 65.9546 27.5434 66.2681 27.4461L69.7223 26.6843C70.1555 26.6098 70.3721 26.7759 70.3721 27.1769V33.1392H73.7921C74.1398 33.1392 74.3165 33.3225 74.3165 33.6833V36.4268C74.3165 36.7876 74.1398 36.9709 73.7921 36.9709H70.3892V44.6228C70.3892 45.6309 70.6685 46.3869 71.2214 46.9024C71.7743 47.4179 72.5666 47.6756 73.5926 47.6756L73.5983 47.6584Z" fill="#F4F2EF"/>
<path d="M76.6367 42.3492C76.6367 39.6458 77.5829 37.3605 79.4753 35.4991C81.3791 33.6205 83.6933 32.6812 86.4236 32.6812C88.1735 32.6468 89.8037 33.0649 91.3142 33.9355C92.8304 34.8061 94.0217 35.9974 94.8938 37.498C95.7659 38.9986 96.1877 40.6195 96.1478 42.3492C96.182 44.0846 95.7659 45.694 94.8938 47.1946C94.0217 48.6895 92.8247 49.8751 91.3142 50.7457C89.8037 51.6163 88.1678 52.0344 86.4236 52C84.6167 52 82.9637 51.5762 81.4703 50.7285C79.9883 49.8808 78.8027 48.7124 77.9249 47.2233C77.0699 45.7456 76.6424 44.119 76.6424 42.3549L76.6367 42.3492ZM81.2708 42.3492C81.2708 43.8383 81.761 45.0869 82.7357 46.095C83.7389 47.103 84.9587 47.6013 86.4065 47.6013C87.8543 47.6013 89.0798 47.0973 90.0431 46.095C91.0178 45.0869 91.508 43.8441 91.508 42.3492C91.508 40.8543 91.0178 39.5828 90.0431 38.5862C89.0798 37.5782 87.8657 37.0799 86.4065 37.0799C84.9473 37.0799 83.7104 37.5839 82.7357 38.5862C81.761 39.5771 81.2708 40.8314 81.2708 42.3492Z" fill="#F4F2EF"/>
<path d="M113.773 34.3879C114.052 34.6285 114.075 34.9149 113.847 35.2413L112.365 37.6412C112.114 38.0421 111.829 38.0994 111.516 37.8244C110.587 37.0627 109.697 36.6789 108.837 36.6789C107.606 36.6789 106.562 37.1543 105.707 38.0994C104.864 39.0215 104.442 40.1441 104.442 41.4614V51.0206C104.442 51.3986 104.254 51.5819 103.883 51.5819H100.412C100.036 51.5819 99.8535 51.3929 99.8535 51.0206V33.7006C99.8535 33.5174 99.9048 33.3742 100.019 33.2654C100.127 33.1565 100.264 33.0993 100.435 33.0993H102.441C102.709 33.0993 102.914 33.231 103.057 33.5002L103.855 36.152C104.459 35.1096 105.257 34.2734 106.26 33.6434C107.286 33.0019 108.335 32.6812 109.407 32.6812C110.131 32.6812 110.883 32.8358 111.67 33.1451C112.451 33.4544 113.157 33.8667 113.784 34.3879H113.773Z" fill="#F4F2EF"/>
</g>
<defs>
<clipPath id="clip0_6_1412">
<rect width="114" height="52" fill="white"/>
</clipPath>
</defs>
</svg>
