<?xml version="1.0" encoding="UTF-8"?>
<svg id="Capa_2" xmlns="http://www.w3.org/2000/svg" viewBox="0 0 894 405.85">
  <defs>
    <style>
      .cls-1 {
        fill: #0b379b;
      }

      .cls-2 {
        fill: #ff4b33;
      }
    </style>
  </defs>
  <g id="Capa_1-2" data-name="Capa_1">
    <g>
      <g>
        <path class="cls-1" d="M312.73,36.63l15.69,1.29c1.32.11,2.37.62,3.15,1.54.78.92,1.11,2.09,1,3.5l-10.74,130.63c-1.64,19.88-9.47,35.51-23.5,46.88-13.84,11.38-31.14,16.37-51.9,14.94-9.53-.59-18.97-2.37-28.31-5.32-9.16-2.84-17.07-6.48-23.72-10.92-2.26-1.42-2.45-3.71-.57-6.88l9.43-17.73c1.21-2.09,3.38-2.47,6.5-1.17,12.78,6.17,25.24,9.76,37.4,10.76,11.03.91,20.16-1.76,27.41-7.99,7.35-6.32,11.52-14.95,12.52-25.87l1.26-11.85c-13.2,12.77-29.13,18.38-47.79,16.85-12.55-.84-23.91-4.95-34.07-12.34-10.16-7.38-17.85-16.86-23.07-28.44-5.22-11.58-7.16-23.71-5.83-36.42,1.79-21.77,9.82-39.23,24.09-52.38,14.37-13.24,31.32-19.06,50.82-17.45,10.27.84,19.54,3.86,27.79,9.04,8.26,5.19,14.92,12.16,19.98,20.93l7.39-18.89c1.11-1.99,2.8-2.9,5.06-2.71ZM250.07,140.93c11.5.94,21.31-1.9,29.45-8.54,8.14-6.73,12.66-15.51,13.55-26.35.91-11.03-2.15-20.62-9.16-28.79-6.83-8.06-16.05-12.57-27.64-13.52-11.31-.93-21,2.02-29.05,8.86-7.97,6.94-12.41,15.91-13.32,26.94-.89,10.84,2.08,20.24,8.93,28.2,6.94,7.88,16.02,12.27,27.24,13.2Z"/>
        <path class="cls-2" d="M355.86,112.62c1.73-21.01,10.59-38.17,26.58-51.47,16.09-13.38,34.79-19.2,56.09-17.45,13.69.84,26.17,5.14,37.44,12.9,11.27,7.76,19.84,17.76,25.71,30.01,5.87,12.25,8.12,25.1,6.72,38.55-.82,13.5-5.13,25.79-12.92,36.87-7.79,11.08-17.88,19.52-30.26,25.33-12.39,5.81-25.4,8.02-39.04,6.61-14.14-1.16-26.78-5.53-37.92-13.08-11.05-7.55-19.54-17.4-25.46-29.56-5.75-12.05-8.05-24.95-6.92-38.71ZM392.05,115.6c-.95,11.59,2.06,21.61,9.05,30.06,7.18,8.47,16.42,13.17,27.73,14.1,11.4.94,21.19-2.19,29.38-9.4,8.28-7.19,12.89-16.59,13.85-28.18.97-11.78-2.05-21.85-9.04-30.2-6.9-8.44-16.05-13.13-27.45-14.07-11.5-.94-21.38,2.18-29.66,9.37-8.27,7.1-12.89,16.54-13.86,28.32Z"/>
        <path class="cls-2" d="M528.47,126.82c1.73-21.02,10.59-38.17,26.58-51.47,16.09-13.38,34.79-19.2,56.09-17.45,13.69.84,26.17,5.14,37.44,12.9,11.27,7.76,19.84,17.76,25.71,30.01,5.87,12.25,8.12,25.1,6.72,38.55-.82,13.5-5.13,25.79-12.92,36.87-7.79,11.08-17.88,19.52-30.26,25.33-12.39,5.81-25.4,8.02-39.04,6.61-14.14-1.17-26.78-5.53-37.92-13.08-11.05-7.55-19.54-17.4-25.46-29.56-5.75-12.05-8.06-24.95-6.92-38.71ZM564.66,129.8c-.95,11.59,2.07,21.61,9.06,30.06,7.18,8.47,16.42,13.17,27.74,14.1,11.4.94,21.19-2.19,29.38-9.4,8.28-7.19,12.89-16.59,13.85-28.18.97-11.78-2.05-21.85-9.04-30.2-6.9-8.44-16.05-13.13-27.45-14.07-11.5-.94-21.38,2.18-29.66,9.37-8.27,7.1-12.89,16.54-13.86,28.32Z"/>
        <path class="cls-1" d="M862.83,7.01l-12.7,154.37.15-.13-4.87,59.23c-.25,3.11-1.89,4.54-4.9,4.29l-15.69-1.29c-2.08-.17-3.6-1.34-4.55-3.51l-4.31-20.28c-6.43,7.82-14.14,13.64-23.14,17.45-9,3.81-18.68,5.3-29.04,4.44-19.7-1.62-35.51-10.09-47.44-25.4-11.93-15.31-17.01-33.66-15.26-55.05,1.79-21.77,9.82-39.23,24.09-52.39,14.37-13.24,31.31-19.06,50.82-17.45,18.57,1.53,33.14,9.46,43.73,23.81l7.21-91.07c.24-2.92,1.78-4.26,4.6-4.03l27.14,2.23c3.01.25,4.4,1.83,4.16,4.75ZM773.31,186.95c11.03.91,20.72-2.14,29.08-9.14,8.46-7.18,13.15-16.28,14.06-27.31.91-11.12-2.22-20.91-9.4-29.38-7.1-8.36-16.2-13-27.32-13.92-10.74-.88-20.3,2.22-28.66,9.31-8.27,7.1-12.87,16.26-13.79,27.47-.92,11.12,2.17,20.86,9.26,29.23,7.1,8.27,16.03,12.85,26.76,13.73Z"/>
      </g>
      <g>
        <path class="cls-1" d="M150.22,183.7v154.89l.14-.14v59.43c0,3.12-1.51,4.68-4.54,4.68h-15.74c-2.08,0-3.69-1.04-4.82-3.12l-5.96-19.86c-5.77,8.32-12.98,14.75-21.63,19.29-8.65,4.54-18.18,6.81-28.58,6.81-19.77,0-36.22-7.14-49.36-21.42-13.15-14.28-19.72-32.15-19.72-53.62s6.57-39.9,19.72-54.18c13.24-14.37,29.64-21.56,49.22-21.56s33.81,6.72,45.53,20.14l-.28-91.35c0-2.93,1.42-4.4,4.25-4.4h27.24c3.03,0,4.54,1.47,4.54,4.4ZM75.75,370.37c11.06,0,20.47-3.83,28.23-11.49,7.85-7.85,11.77-17.31,11.77-28.37s-3.92-20.66-11.77-28.51c-7.76-7.75-17.21-11.63-28.37-11.63s-20.05,3.88-27.8,11.63c-7.66,7.76-11.49,17.26-11.49,28.51s3.88,20.62,11.63,28.37c7.75,7.66,17.02,11.49,27.8,11.49Z"/>
        <path class="cls-1" d="M179.29,330.51c0-21.09,7.42-38.91,22.27-53.48,14.94-14.66,33.09-21.99,54.47-21.99,13.71-.28,26.5,2.98,38.37,9.79,11.87,6.81,21.23,16.08,28.09,27.8,6.85,11.73,10.14,24.35,9.86,37.87.28,13.52-3,26.12-9.86,37.8-6.86,11.68-16.22,20.92-28.09,27.73-11.87,6.81-24.66,10.07-38.37,9.79-14.19,0-27.14-3.31-38.87-9.93-11.63-6.62-20.9-15.74-27.8-27.38-6.72-11.54-10.07-24.21-10.07-38.01ZM215.61,330.51c0,11.63,3.83,21.37,11.49,29.22,7.85,7.85,17.45,11.77,28.79,11.77s20.94-3.92,28.51-11.77c7.66-7.85,11.49-17.59,11.49-29.22s-3.83-21.61-11.49-29.36c-7.57-7.85-17.07-11.77-28.51-11.77s-21.14,3.92-28.79,11.77c-7.66,7.76-11.49,17.54-11.49,29.36Z"/>
        <path class="cls-1" d="M428.66,405.83c-13.81,0-26.57-3.4-38.3-10.21-11.63-6.71-20.9-15.89-27.8-27.52-6.72-11.54-10.07-24.07-10.07-37.59,0-10.12,1.99-19.86,5.96-29.22,3.97-9.36,9.36-17.4,16.17-24.11,6.9-6.81,15.06-12.18,24.47-16.1,9.41-3.92,19.17-5.89,29.29-5.89,9.08,0,18.2,1.7,27.38,5.11,9.08,3.31,16.64,7.66,22.69,13.05,2.08,1.8,2.36,3.97.85,6.52l-13.62,20.85c-.76,1.13-1.8,1.8-3.12,1.99-1.33.19-2.51-.14-3.55-.99-8.89-7.47-18.91-11.21-30.07-11.21s-20.24,3.83-27.8,11.49c-7.57,7.76-11.35,17.21-11.35,28.37s3.83,20.62,11.49,28.37c7.66,7.76,16.97,11.63,27.94,11.63s21.04-3.64,29.64-10.92c.95-.76,2.06-1.04,3.34-.85,1.28.19,2.34.85,3.19,1.99l13.9,20c.76.95,1.04,2.11.85,3.47-.19,1.37-.81,2.48-1.84,3.33-6.24,5.39-14.09,9.84-23.55,13.33-9.17,3.4-17.87,5.11-26.1,5.11Z"/>
        <path class="cls-1" d="M577.17,371.93c1.89,0,3.48.52,4.75,1.56,1.27,1.04,1.91,2.32,1.91,3.83v22.69c0,1.7-.66,3.1-1.99,4.18-1.33,1.09-3.03,1.63-5.11,1.63-19.2,0-34.09-4.97-44.68-14.89-10.69-10.12-16.03-24.58-16.03-43.4v-59.15h-16.6c-2.84,0-4.26-1.42-4.26-4.26v-21.28c0-2.93,1.42-4.4,4.26-4.4h16.6v-39.43c0-2.55,1.23-4.21,3.69-4.97l27.09-5.96c3.4-.57,5.11.71,5.11,3.83v46.53h26.81c2.74,0,4.11,1.42,4.11,4.26v21.42c0,2.84-1.37,4.26-4.11,4.26h-26.67v59.72c0,7.85,2.18,13.78,6.53,17.8,4.35,4.02,10.54,6.03,18.58,6.03Z"/>
        <path class="cls-1" d="M601,330.51c0-21.09,7.42-38.91,22.27-53.48,14.94-14.66,33.1-21.99,54.47-21.99,13.71-.28,26.5,2.98,38.37,9.79,11.87,6.81,21.23,16.08,28.09,27.8,6.85,11.73,10.14,24.35,9.86,37.87.29,13.52-3,26.12-9.86,37.8-6.86,11.68-16.22,20.92-28.09,27.73-11.87,6.81-24.66,10.07-38.37,9.79-14.19,0-27.14-3.31-38.87-9.93-11.63-6.62-20.9-15.74-27.8-27.38-6.72-11.54-10.07-24.21-10.07-38.01ZM637.31,330.51c0,11.63,3.83,21.37,11.49,29.22,7.85,7.85,17.45,11.77,28.79,11.77s20.94-3.92,28.51-11.77c7.66-7.85,11.49-17.59,11.49-29.22s-3.83-21.61-11.49-29.36c-7.57-7.85-17.07-11.77-28.51-11.77s-21.14,3.92-28.79,11.77c-7.66,7.76-11.49,17.54-11.49,29.36Z"/>
        <path class="cls-1" d="M892.21,268.38c2.18,1.89,2.36,4.11.57,6.67l-11.63,18.72c-1.99,3.12-4.21,3.6-6.67,1.42-7.28-5.96-14.28-8.94-20.99-8.94-9.65,0-17.83,3.69-24.54,11.06-6.62,7.19-9.93,15.94-9.93,26.24v74.61c0,2.93-1.47,4.4-4.4,4.4h-27.24c-2.93,0-4.4-1.46-4.4-4.4v-135.18c0-1.42.42-2.55,1.27-3.4.85-.85,1.94-1.28,3.26-1.28h15.74c2.08,0,3.69,1.04,4.82,3.12l6.24,20.71c4.73-8.13,11.02-14.66,18.87-19.57,8.04-5.01,16.26-7.52,24.68-7.52,5.67,0,11.58,1.21,17.73,3.62,6.14,2.41,11.68,5.65,16.6,9.72Z"/>
      </g>
    </g>
  </g>
</svg>