<svg width="95" height="43" viewBox="0 0 95 43" fill="none" xmlns="http://www.w3.org/2000/svg">
<g clip-path="url(#clip0_3_422)">
<path d="M33.2311 3.88396L34.8984 4.02131C35.0409 4.03078 35.1501 4.08762 35.2309 4.18234C35.3116 4.2818 35.3496 4.40494 35.3354 4.55176L34.1954 18.391C34.0196 20.4986 33.1884 22.1515 31.6969 23.3592C30.2244 24.567 28.3861 25.0927 26.1821 24.9411C25.1704 24.8796 24.1681 24.6901 23.1754 24.3775C22.2016 24.0744 21.3609 23.6908 20.6531 23.2219C20.4156 23.0703 20.3919 22.8288 20.5914 22.4925L21.5936 20.6122C21.7219 20.3896 21.9546 20.3517 22.2824 20.4891C23.6409 21.1427 24.9661 21.5216 26.2581 21.6305C27.4314 21.7252 28.4004 21.4458 29.1699 20.7827C29.9489 20.1149 30.3954 19.2008 30.4999 18.0405L30.6329 16.7854C29.2316 18.1399 27.5359 18.732 25.5551 18.5709C24.2204 18.4809 23.0139 18.0452 21.9356 17.2637C20.8574 16.4823 20.0404 15.4782 19.4846 14.2515C18.9289 13.0248 18.7246 11.7366 18.8671 10.3915C19.0571 8.08497 19.9121 6.23312 21.4274 4.84067C22.9569 3.43876 24.7571 2.82305 26.8281 2.99355C27.9206 3.08354 28.9039 3.40087 29.7826 3.95027C30.6614 4.49967 31.3691 5.23851 31.9059 6.16681L32.6896 4.1634C32.8084 3.95027 32.9889 3.85554 33.2264 3.87449L33.2311 3.88396ZM26.5716 14.9335C27.7924 15.033 28.8374 14.7299 29.7019 14.0289C30.5664 13.3137 31.0461 12.3854 31.1411 11.2345C31.2361 10.0647 30.9131 9.05116 30.1674 8.18443C29.4406 7.33192 28.4621 6.85356 27.2319 6.7541C26.0301 6.65464 24.9994 6.96723 24.1444 7.69187C23.2989 8.42598 22.8239 9.37796 22.7289 10.5478C22.6339 11.6987 22.9521 12.6933 23.6789 13.5363C24.4151 14.3699 25.3794 14.8388 26.5716 14.9335Z" fill="#F4F2EF"/>
<path d="M37.8145 11.9353C37.9998 9.70925 38.9403 7.89055 40.6408 6.48389C42.3508 5.06777 44.3363 4.44733 46.602 4.63677C48.0555 4.72676 49.3808 5.18144 50.5825 6.00554C51.7843 6.82964 52.6915 7.88581 53.3138 9.18353C53.936 10.4813 54.1783 11.8453 54.0263 13.2709C53.9408 14.7012 53.48 16.0037 52.6535 17.1782C51.827 18.3528 50.7535 19.248 49.4378 19.8637C48.122 20.4794 46.7398 20.7115 45.291 20.5646C43.79 20.4415 42.4458 19.9773 41.263 19.1769C40.0898 18.3765 39.1873 17.3345 38.5555 16.0463C37.9428 14.7675 37.7005 13.4035 37.8193 11.9447L37.8145 11.9353ZM41.662 12.2479C41.5623 13.4745 41.8805 14.5402 42.6263 15.4353C43.391 16.3305 44.3695 16.8325 45.5713 16.9272C46.7825 17.0267 47.8228 16.6952 48.692 15.9326C49.5708 15.1701 50.06 14.1755 50.1645 12.9488C50.269 11.6985 49.946 10.6328 49.205 9.74714C48.4735 8.852 47.4998 8.3547 46.2885 8.25524C45.0678 8.15578 44.018 8.48731 43.1345 9.24984C42.2558 10.0029 41.7665 11.0022 41.662 12.2526V12.2479Z" fill="#FF4B33"/>
<path d="M56.1593 13.4367C56.3445 11.2107 57.285 9.39201 58.9855 7.98536C60.6955 6.56923 62.681 5.94879 64.9468 6.13824C66.4003 6.22823 67.7255 6.6829 68.9273 7.507C70.1243 8.3311 71.0363 9.38728 71.6585 10.685C72.2808 11.9827 72.523 13.3467 72.371 14.7723C72.2855 16.2027 71.8248 17.5051 70.9983 18.6797C70.1718 19.8543 69.0983 20.7494 67.7825 21.3651C66.4668 21.9808 65.0845 22.2129 63.6358 22.0661C62.1348 21.943 60.7905 21.4788 59.6078 20.6784C58.4345 19.878 57.532 18.836 56.9003 17.5478C56.2875 16.269 56.0453 14.905 56.164 13.4462L56.1593 13.4367ZM60.002 13.7541C59.9023 14.9807 60.2205 16.0464 60.9663 16.9415C61.731 17.8367 62.7095 18.3387 63.9113 18.4334C65.1225 18.5329 66.1628 18.2014 67.032 17.4388C67.9108 16.6763 68.4 15.6817 68.5045 14.455C68.609 13.2047 68.286 12.139 67.545 11.2533C66.8135 10.3582 65.8398 9.8609 64.6285 9.76144C63.4078 9.66198 62.358 9.99351 61.4745 10.756C60.5958 11.5091 60.1065 12.5084 60.002 13.7588V13.7541Z" fill="#FF4B33"/>
<path d="M91.6892 0.743827L90.3402 17.1027L90.3544 17.0885L89.8367 23.3639C89.8082 23.6955 89.6372 23.847 89.3142 23.8186L87.6469 23.6813C87.4284 23.6623 87.2669 23.5392 87.1624 23.3118L86.7064 21.1616C86.0224 21.9904 85.2054 22.6061 84.2459 23.0087C83.2912 23.4113 82.2604 23.5676 81.1584 23.4776C79.0637 23.3071 77.3869 22.4072 76.1187 20.7874C74.8504 19.1677 74.3089 17.2211 74.4989 14.9524C74.6889 12.6459 75.5439 10.7941 77.0592 9.40161C78.5839 7.99969 80.3842 7.38398 82.4599 7.55449C84.4312 7.71552 85.9797 8.55856 87.1054 10.0789L87.8702 0.431237C87.8939 0.123384 88.0602 -0.0187024 88.3594 0.00497866L91.2427 0.241789C91.5609 0.270206 91.7082 0.435973 91.6844 0.743827H91.6892ZM82.1749 19.807C83.3482 19.9018 84.3789 19.5797 85.2672 18.8409C86.1649 18.0783 86.6637 17.1169 86.7634 15.947C86.8584 14.7677 86.5259 13.7305 85.7659 12.8354C85.0107 11.9497 84.0417 11.4571 82.8637 11.3624C81.7237 11.2677 80.7072 11.5992 79.8189 12.3475C78.9402 13.1006 78.4509 14.0715 78.3559 15.2603C78.2562 16.4396 78.5887 17.4721 79.3392 18.3578C80.0944 19.234 81.0444 19.7171 82.1844 19.8118L82.1749 19.807Z" fill="#F4F2EF"/>
<path d="M15.9649 19.4658V35.8767L15.9791 35.8625V42.1616C15.9791 42.4932 15.8176 42.659 15.4946 42.659H13.8226C13.5994 42.659 13.4331 42.55 13.3096 42.3274L12.6779 40.2245C12.0651 41.1055 11.3004 41.7875 10.3789 42.2706C9.45738 42.7537 8.44563 42.9905 7.34363 42.9905C5.24413 42.9905 3.49613 42.2327 2.09963 40.7218C0.703133 39.211 0.00488281 37.3165 0.00488281 35.0384C0.00488281 32.7603 0.703133 30.809 2.09963 29.2981C3.50563 27.7731 5.24888 27.0153 7.32938 27.0153C9.40988 27.0153 10.9204 27.7257 12.1696 29.1513L12.1411 19.4705C12.1411 19.1579 12.2931 19.0063 12.5924 19.0063H15.4851C15.8081 19.0063 15.9696 19.1626 15.9696 19.4705L15.9649 19.4658ZM8.05138 39.2442C9.22938 39.2442 10.2269 38.8368 11.0486 38.0269C11.8846 37.1934 12.2979 36.194 12.2979 35.0195C12.2979 33.8449 11.8799 32.8313 11.0486 31.9978C10.2269 31.1784 9.21988 30.7663 8.03238 30.7663C6.84488 30.7663 5.90438 31.1784 5.07788 31.9978C4.26563 32.8171 3.85713 33.8259 3.85713 35.0195C3.85713 36.213 4.27038 37.2028 5.09213 38.0269C5.91388 38.8368 6.90188 39.2442 8.04663 39.2442H8.05138Z" fill="#F4F2EF"/>
<path d="M19.0527 35.0193C19.0527 32.7838 19.8412 30.894 21.4182 29.3548C23.0047 27.8013 24.9332 27.0246 27.2085 27.0246C28.6667 26.9962 30.0252 27.3419 31.284 28.0618C32.5427 28.7817 33.5402 29.7668 34.267 31.0077C34.9937 32.2486 35.3452 33.5889 35.3167 35.0193C35.3452 36.4544 34.9985 37.7852 34.267 39.0261C33.5402 40.2623 32.5427 41.2427 31.284 41.9626C30.0205 42.6825 28.662 43.0282 27.2085 42.9998C25.7027 42.9998 24.3252 42.6493 23.0807 41.9483C21.8457 41.2474 20.8577 40.2812 20.1262 39.0498C19.4137 37.8278 19.0575 36.4828 19.0575 35.024L19.0527 35.0193ZM22.9097 35.0193C22.9097 36.2507 23.3182 37.2832 24.1305 38.1168C24.9665 38.9503 25.983 39.3624 27.1895 39.3624C28.396 39.3624 29.4172 38.9456 30.22 38.1168C31.0322 37.2832 31.4407 36.2554 31.4407 35.0193C31.4407 33.7831 31.0322 32.7317 30.22 31.9076C29.4172 31.074 28.4055 30.662 27.1895 30.662C25.9735 30.662 24.9427 31.0788 24.1305 31.9076C23.3182 32.727 22.9097 33.7642 22.9097 35.0193Z" fill="#F4F2EF"/>
<path d="M45.553 43.0001C44.0852 43.0001 42.7315 42.6401 41.4822 41.9202C40.2472 41.2098 39.2592 40.2389 38.5277 39.0027C37.8152 37.7808 37.459 36.4546 37.459 35.0196C37.459 33.9492 37.668 32.9167 38.0907 31.9221C38.5135 30.9322 39.0835 30.0797 39.8102 29.3693C40.5417 28.6494 41.411 28.081 42.4085 27.6642C43.406 27.2475 44.4462 27.0391 45.5197 27.0391C46.484 27.0391 47.453 27.219 48.4267 27.579C49.391 27.9295 50.1937 28.3889 50.8397 28.962C51.063 29.1514 51.0915 29.3835 50.93 29.6534L49.4812 31.8605C49.4005 31.9789 49.2912 32.05 49.1487 32.0689C49.0062 32.0879 48.8827 32.0547 48.7735 31.9647C47.8282 31.1738 46.7642 30.7759 45.5767 30.7759C44.3892 30.7759 43.425 31.1832 42.6222 31.9931C41.8195 32.8125 41.4157 33.8166 41.4157 35.0006C41.4157 36.1847 41.8242 37.184 42.6365 38.0081C43.4487 38.8275 44.4415 39.2395 45.6052 39.2395C46.769 39.2395 47.8425 38.8559 48.7545 38.0839C48.8542 38.0034 48.973 37.975 49.1107 37.9939C49.2485 38.0128 49.3577 38.0839 49.448 38.2023L50.9252 40.3194C51.006 40.4188 51.0345 40.542 51.0155 40.6888C50.9965 40.8356 50.93 40.954 50.8207 41.044C50.1557 41.6171 49.3245 42.086 48.3175 42.4554C47.3437 42.8154 46.4175 42.9953 45.5435 42.9953L45.553 43.0001Z" fill="#F4F2EF"/>
<path d="M61.3326 39.41C61.5321 39.41 61.7031 39.4669 61.8361 39.5758C61.9738 39.6847 62.0403 39.8221 62.0403 39.9831V42.3891C62.0403 42.5691 61.9691 42.7159 61.8313 42.8343C61.6888 42.948 61.5083 43.0096 61.2898 43.0096C59.2473 43.0096 57.6656 42.4838 56.5398 41.4324C55.4046 40.362 54.8346 38.8275 54.8346 36.8336V30.5676H53.0723C52.7683 30.5676 52.6211 30.416 52.6211 30.1176V27.8632C52.6211 27.5506 52.7731 27.399 53.0723 27.399H54.8346V23.2217C54.8346 22.9517 54.9628 22.7765 55.2241 22.696L58.1026 22.0661C58.4636 22.0045 58.6441 22.1418 58.6441 22.4734V27.4038H61.4941C61.7838 27.4038 61.9311 27.5553 61.9311 27.8537V30.1224C61.9311 30.4207 61.7838 30.5723 61.4941 30.5723H58.6583V36.8999C58.6583 37.7334 58.8911 38.3586 59.3518 38.7849C59.8126 39.2111 60.4728 39.4243 61.3278 39.4243L61.3326 39.41Z" fill="#F4F2EF"/>
<path d="M63.8643 35.0193C63.8643 32.7838 64.6528 30.894 66.2298 29.3548C67.8163 27.8013 69.7448 27.0246 72.02 27.0246C73.4783 26.9962 74.8368 27.3419 76.0955 28.0618C77.359 28.7817 78.3518 29.7668 79.0785 31.0077C79.8053 32.2486 80.1568 33.5889 80.1235 35.0193C80.152 36.4544 79.8053 37.7852 79.0785 39.0261C78.3518 40.2623 77.3543 41.2427 76.0955 41.9626C74.8368 42.6825 73.4735 43.0282 72.02 42.9998C70.5143 42.9998 69.1368 42.6493 67.8923 41.9483C66.6573 41.2474 65.6693 40.2812 64.9378 39.0498C64.2253 37.8278 63.869 36.4828 63.869 35.024L63.8643 35.0193ZM67.726 35.0193C67.726 36.2507 68.1345 37.2832 68.9468 38.1168C69.7828 38.9503 70.7993 39.3624 72.0058 39.3624C73.2123 39.3624 74.2335 38.9456 75.0363 38.1168C75.8485 37.2832 76.257 36.2554 76.257 35.0193C76.257 33.7831 75.8485 32.7317 75.0363 31.9076C74.2335 31.074 73.2218 30.662 72.0058 30.662C70.7898 30.662 69.759 31.0788 68.9468 31.9076C68.1345 32.727 67.726 33.7642 67.726 35.0193Z" fill="#F4F2EF"/>
<path d="M94.8104 28.4363C95.0432 28.6352 95.0622 28.872 94.8722 29.142L93.6372 31.1265C93.4282 31.458 93.1907 31.5054 92.9294 31.278C92.1552 30.6481 91.4142 30.3308 90.6969 30.3308C89.6709 30.3308 88.8017 30.7239 88.0892 31.5053C87.3862 32.2679 87.0347 33.1962 87.0347 34.2855V42.1902C87.0347 42.5028 86.8779 42.6544 86.5692 42.6544H83.6764C83.3629 42.6544 83.2109 42.4981 83.2109 42.1902V27.8679C83.2109 27.7164 83.2537 27.598 83.3487 27.508C83.4389 27.418 83.5529 27.3706 83.6954 27.3706H85.3674C85.5907 27.3706 85.7617 27.4796 85.8804 27.7022L86.5454 29.895C87.0489 29.0331 87.7139 28.3416 88.5499 27.8206C89.4049 27.2901 90.2789 27.0249 91.1719 27.0249C91.7752 27.0249 92.4022 27.1528 93.0577 27.4085C93.7084 27.6643 94.2974 28.0053 94.8199 28.4363H94.8104Z" fill="#F4F2EF"/>
</g>
<defs>
<clipPath id="clip0_3_422">
<rect width="95" height="43" fill="white"/>
</clipPath>
</defs>
</svg>
