<svg width="318" height="300" viewBox="0 0 318 300" fill="none" xmlns="http://www.w3.org/2000/svg">
<path fill-rule="evenodd" clip-rule="evenodd" d="M296.969 182.218C278.811 165.361 249.598 155.54 225.454 149.921C226.582 144.759 227.191 139.497 227.272 134.214C227.372 134.214 227.471 134.194 227.562 134.154C227.654 134.113 227.736 134.055 227.804 133.981C227.871 133.907 227.923 133.82 227.955 133.725C227.986 133.63 227.998 133.53 227.989 133.43C227.338 126.327 225.388 113.588 222.22 107.102C215.467 93.2457 204.028 84.1917 190.089 78.239C179.184 73.6037 166.745 73.2368 162.743 72.2697C161.971 70.5446 161.655 68.6497 161.826 66.7673C164.443 65.2018 166.533 62.8922 167.831 60.1331C169.129 57.3741 169.575 54.2909 169.113 51.2771C169.705 50.9175 170.263 50.5045 170.78 50.0433C170.891 50.1017 171.014 50.1322 171.139 50.1322C171.264 50.1322 171.387 50.1017 171.497 50.0433C173.171 49.2661 174.652 48.1271 175.832 46.7085C177.817 44.0573 176.449 42.9234 176.749 39.4052C176.777 38.6683 176.947 37.9436 177.25 37.271C180.951 29.8844 181.668 25.9493 179.968 17.4455C179.267 13.9607 175.899 13.6105 174.332 12.0265C172.764 10.4424 173.098 7.12431 170.413 5.50693C166.486 3.10767 162.169 1.4147 157.658 0.504717C146.169 -1.46282 145.336 6.27393 138.216 6.12387C133.38 6.02382 129.262 3.45602 122.509 8.89175C120.415 10.4888 118.705 12.5331 117.502 14.8754C116.299 17.2178 115.634 19.7991 115.556 22.4311C115.722 26.6496 118.974 31.2016 119.091 35.2701C119.191 38.6049 117.773 42.5733 119.808 45.2745C120.691 46.4417 122.009 47.3254 122.442 48.6093C123.406 49.7583 124.529 50.7633 125.777 51.5939C125.89 51.6361 126.014 51.6361 126.127 51.5939C127.704 52.9055 129.556 53.8457 131.546 54.3452C133.017 59.191 135.924 63.4762 139.883 66.6339C139.347 68.3112 138.695 69.9492 137.932 71.5361C136.796 72.0675 135.613 72.4917 134.397 72.8033C121.258 76.5216 109.536 76.9551 94.5798 89.9609C84.082 98.8738 76.6847 110.889 73.4538 124.276C72.524 128.212 72.0209 132.237 71.9532 136.281C71.9532 138.115 71.9532 138.532 74.1375 138.566C74.4872 143.276 75.2233 147.949 76.3384 152.539C35.3704 165.027 -5.23091 190.789 1.18859 233.141C6.85776 270.474 59.8645 287.081 97.0643 293.818C132.462 299.947 168.497 301.527 204.295 298.52C233.024 296.052 258.135 290.549 274.009 282.546C318.045 260.169 333.319 216.033 296.969 182.218ZM224.737 149.17C221.903 159.175 215.266 162.226 205.145 164.427C197.925 166.095 188.688 162.293 183.186 157.341C176.716 151.521 156.691 127.911 152.989 124.476C152.122 121.491 150.538 106.135 151.205 102.8C151.572 102.4 151.655 102.516 151.888 102.8C152.522 103.584 152.472 103.734 157.424 118.19C157.48 118.354 157.589 118.494 157.734 118.588C157.88 118.682 158.052 118.724 158.225 118.707C172.231 117.223 191.573 125.51 195.124 130.579C195.215 130.665 195.323 130.732 195.44 130.775C195.558 130.818 195.683 130.836 195.808 130.829C200.693 130.829 221.753 131.429 226.555 134.164V134.28C226.391 139.288 225.783 144.271 224.737 149.17ZM266.806 205.629C273.689 205.505 280.517 206.882 286.815 209.664C304.573 218.284 291.35 232.507 266.806 232.491C266.616 232.478 266.428 232.537 266.28 232.658C266.133 232.778 266.037 232.95 266.011 233.139C265.986 233.328 266.033 233.519 266.143 233.674C266.254 233.829 266.419 233.937 266.606 233.975C273.676 235.975 278.278 239.21 279.945 242.828C281.279 245.863 280.345 249.115 276.927 251.999C268.357 259.286 250.249 260.47 238.143 257.001C237.972 256.954 237.789 256.967 237.626 257.038C237.462 257.109 237.328 257.233 237.245 257.39C237.161 257.547 237.134 257.728 237.167 257.903C237.2 258.078 237.291 258.236 237.426 258.352C240.761 261.237 241.762 264.488 240.428 267.506C235.059 279.661 201.094 282.112 188.355 271.324C188.241 271.224 188.1 271.16 187.95 271.138C187.8 271.116 187.647 271.138 187.509 271.202C187.372 271.265 187.255 271.367 187.174 271.496C187.094 271.624 187.052 271.773 187.054 271.925C187.054 283.596 156.791 289.916 138.949 281.279C133.947 278.878 130.796 275.61 130.796 271.925C130.795 271.776 130.752 271.631 130.673 271.506C130.593 271.38 130.479 271.281 130.344 271.218C130.21 271.155 130.06 271.131 129.913 271.15C129.765 271.169 129.626 271.23 129.512 271.324C125.327 274.859 118.407 277.127 110.82 277.994C104.112 278.708 97.3297 278.182 90.8115 276.443C83.7417 274.442 79.1397 271.224 77.4723 267.589C76.1384 264.571 77.0721 261.32 80.4903 258.419C80.6233 258.304 80.7131 258.148 80.7446 257.975C80.7762 257.803 80.7477 257.624 80.6638 257.47C80.58 257.316 80.4458 257.196 80.2838 257.129C80.1217 257.061 79.9416 257.052 79.7733 257.101C67.7346 260.436 49.61 259.402 40.9728 252.099C37.638 249.198 36.6042 245.946 37.9382 242.895C39.6056 239.277 44.1909 236.025 51.2774 234.025C51.4533 233.987 51.6087 233.884 51.7126 233.737C51.8165 233.591 51.8614 233.41 51.8383 233.231C51.8152 233.053 51.7258 232.89 51.5879 232.774C51.45 232.658 51.2737 232.599 51.094 232.607C26.7165 232.607 13.0605 218.434 31.0851 209.68C37.3784 206.882 44.2075 205.493 51.094 205.612C51.2435 205.619 51.3904 205.57 51.5058 205.475C51.6212 205.38 51.6967 205.244 51.7176 205.096C51.7385 204.948 51.7032 204.797 51.6187 204.674C51.5341 204.55 51.4065 204.462 51.2607 204.428C44.1242 202.427 39.4388 199.159 37.8214 195.491C36.4375 192.389 37.3712 189.055 40.8561 186.087C46.2752 181.468 55.3458 179.567 62.5323 179.184C59.9096 182.878 58.5632 187.327 58.6973 191.856C59.0141 199.509 66.8342 205.745 73.3538 209.83C71.5488 213.386 71.019 217.453 71.8531 221.352C74.0875 232.39 89.1608 238.493 99.8988 241.661C98.9151 246.263 96.7308 272.825 101.183 272.291C106.568 271.658 108.386 255.151 114.522 252.099C115.356 251.699 121.608 250.098 131.079 247.547C153.248 249.952 175.615 249.913 197.775 247.43C201.911 248.264 204.445 248.781 205.029 248.998C211.398 251.632 214.283 268.006 219.685 268.29C223.754 268.506 220.752 246.98 220.085 242.928C239.46 236.626 254.951 220.985 241.762 205.695C248.114 201.36 256.068 194.74 256.768 187.087C256.945 184.443 256.547 181.792 255.601 179.317C262.704 179.717 271.641 181.618 276.994 186.17C280.429 189.105 281.379 192.389 280.012 195.457C278.344 199.092 273.742 202.327 266.673 204.328C266.546 204.392 266.442 204.493 266.374 204.617C266.307 204.741 266.278 204.883 266.292 205.024C266.307 205.165 266.364 205.298 266.455 205.406C266.547 205.514 266.669 205.592 266.806 205.629ZM87.51 165.894C84.7822 166.018 82.0787 166.466 79.4565 167.228C80.8256 165.933 82.3758 164.843 84.0585 163.994C85.1429 164.741 86.2991 165.377 87.51 165.894ZM107.702 235.408C110.687 239.377 111.771 242.312 116.823 250.098C115.156 250.565 114.239 250.865 113.938 251.015C107.452 254.35 105.418 270.724 100.933 271.308C100.532 271.308 100.149 270.191 100.049 269.79C98.4816 264.238 99.2652 246.647 100.416 241.444C100.549 240.761 107.102 235.859 107.702 235.408ZM240.611 206.279C253.083 220.885 238.027 235.358 219.635 241.294C219.335 239.627 219.018 238.226 218.751 237.293C218.284 235.742 204.195 226.788 202.411 225.621C189.111 231.251 175.412 235.888 161.426 239.494C181.685 244.079 180.501 243.329 179.867 243.679C184.653 244.679 188.955 245.546 192.573 246.263C173.478 248.039 154.259 248.039 135.164 246.263C164.811 238.243 215.066 223.27 240.611 206.279ZM214.166 234.391C215.586 235.307 216.915 236.357 218.134 237.526C219.585 242.528 222.003 263.471 219.902 266.989C219.802 267.172 219.702 267.306 219.552 267.306C214.983 267.022 211.648 249.915 205.079 247.831C208.43 243.495 211.215 238.76 214.233 234.391H214.166ZM215.617 163.393C200.527 168.396 109.987 231.107 100.566 240.227C90.3613 237.276 75.2046 231.407 73.0703 220.969C72.2997 217.438 72.7586 213.749 74.3709 210.514C86.1761 217.617 102.5 223.437 115.656 227.555C141.217 208.096 144.252 205.429 155.673 197.358C143.418 190.205 115.839 174.365 102.8 168.729C104.263 168.569 105.708 168.279 107.119 167.862V169.896L108.686 170.647V167.312C113.051 165.765 117.031 163.297 120.358 160.075C124.426 156.04 134.297 143.535 138.149 138.699C138.533 138.821 138.944 138.834 139.336 138.737C139.727 138.64 140.084 138.436 140.367 138.149C141.438 137.066 142.358 135.844 143.101 134.514C143.281 134.225 143.367 133.888 143.349 133.548C143.331 133.208 143.21 132.882 143.001 132.613C149.571 124.409 148.904 125.727 149.121 125.176C149.645 121.921 149.951 118.635 150.038 115.339C150.319 118.628 150.832 121.893 151.572 125.11C151.627 125.258 151.718 125.39 151.838 125.493C154.356 127.761 167.145 142.634 175.866 151.972C181.435 157.941 185.187 161.976 193.007 164.594C196.423 165.817 200.066 166.272 203.678 165.928C203.678 166.928 203.795 167.829 203.828 168.596L205.345 167.895C205.345 167.779 205.345 166.345 205.212 165.661C209.997 164.627 215.316 163.01 219.085 159.975C221.813 160.279 224.512 160.803 227.155 161.543C223.251 161.543 219.375 162.191 215.683 163.46L215.617 163.393ZM141.917 131.596C138.583 129.011 138.266 129.512 136.232 126.277C136.768 125.929 137.228 125.475 137.582 124.943C138.42 123.113 138.771 121.096 138.599 119.09C139.793 119.024 140.99 119.024 142.184 119.09C142.357 119.096 142.527 119.044 142.667 118.941C142.806 118.838 142.906 118.691 142.951 118.524C147.286 103.117 147.386 101.849 148.304 102.8C149.171 106.135 148.404 121.542 147.72 124.593C146.77 125.577 144.635 128.194 141.917 131.596ZM137.132 119.524C137.105 120.43 137.01 121.333 136.848 122.225C135.162 123.051 133.307 123.474 131.429 123.459C129.911 123.493 128.399 123.262 126.961 122.775C127.177 121.658 127.62 120.597 128.261 119.657C131.063 118.09 135.448 116.773 137.132 119.524ZM119.041 78.1057C124.877 76.4383 135.048 74.2873 138.032 72.9701C138.983 72.5532 139.283 72.6866 141.367 66.6172C141.406 66.4908 141.405 66.3552 141.363 66.2296C141.321 66.104 141.241 65.9946 141.134 65.9169C137.115 62.9009 134.16 58.6847 132.697 53.8783C132.397 52.7778 127.911 52.9779 126.027 49.443C125.33 47.5404 125.401 45.4409 126.227 43.5904C126.386 43.2636 126.64 42.9919 126.955 42.8106C127.27 42.6293 127.632 42.5466 127.995 42.5733C128.767 42.7014 129.489 43.042 130.079 43.5571C130.362 43.8072 131.263 43.5571 131.563 41.8897C132.08 39.1384 130.662 30.0844 132.08 25.2156C133.297 20.9971 136.682 20.2134 140.417 21.9975C146.086 24.7154 146.92 28.3837 156.124 30.3346C158.198 30.7652 160.308 30.9942 162.426 31.0182C163.294 31.0182 166.211 29.9677 167.129 30.0678C167.779 31.1849 166.828 36.9708 167.629 38.5382C167.764 38.8427 167.98 39.1045 168.254 39.2954C168.527 39.4864 168.847 39.5993 169.179 39.622C169.74 39.6193 170.299 39.5578 170.847 39.4386C170.997 39.4386 171.464 39.3219 171.564 39.4386C172.074 39.9852 172.472 40.6278 172.732 41.329C172.992 42.0303 173.111 42.7763 173.081 43.5237C173.181 46.0081 170.63 48.9261 170.563 49.2929C169.013 50.7769 168.446 50.6435 168.496 51.1271C169.663 62.7989 161.276 65.4334 161.143 66.4505C160.891 68.6251 161.237 70.8273 162.143 72.82C162.827 74.2039 177.266 73.8538 189.839 79.2895C203.745 85.2922 214.85 94.2961 221.219 107.635C224.204 113.855 225.971 125.793 226.672 132.646C221.469 132.029 222.536 130.329 196.141 129.645C195.248 128.589 194.216 127.658 193.073 126.877C193.014 124.032 192.707 121.198 192.156 118.407C191.99 115.205 189.905 106.885 189.088 106.185C188.821 105.885 188.371 106.285 188.605 106.602C188.771 106.602 189.538 114.538 192.19 126.277C183.853 120.674 169.83 116.273 158.842 117.09C153.906 102.85 154.056 103.434 153.523 102.416C152.989 101.399 152.305 100.749 151.288 100.966C150.949 101.038 150.633 101.191 150.366 101.411C150.099 101.632 149.889 101.914 149.754 102.233C149.598 101.908 149.364 101.627 149.073 101.415C148.782 101.203 148.444 101.065 148.087 101.016C147.07 100.899 146.419 101.683 145.936 102.683C145.452 103.684 145.536 103.5 141.617 117.69C140.226 117.66 138.835 117.704 137.449 117.823C134.781 115.622 130.429 117.373 127.828 119.307C127.686 119.451 127.558 119.607 127.444 119.774C120.809 121.64 114.535 124.611 108.886 128.561C109.12 127.211 109.37 125.943 109.703 123.642C110.485 119.227 111.042 114.775 111.371 110.303C111.587 108.186 111.07 107.585 110.47 109.986C108.898 116.257 108.103 122.697 108.102 129.162C106.994 129.995 106.011 130.983 105.185 132.096C99.0818 132.63 81.2073 133.947 75.5381 137.032C74.8885 137.075 74.2368 137.075 73.5872 137.032C72.0699 113.988 92.4122 85.4756 119.041 78.1057ZM74.7878 138.216C78.306 134.997 98.9651 133.647 103.651 133.363C102.093 134.425 100.845 135.881 100.032 137.582C100.032 137.782 99.7488 138.266 100.032 138.366C100.316 138.466 101.45 137.399 101.6 137.265C106.769 133.163 107.235 128.578 122.692 122.709C123.876 122.258 125.093 121.842 126.327 121.458C126.134 121.87 125.983 122.3 125.877 122.742C125.77 122.823 125.684 122.929 125.629 123.052C125.574 123.174 125.55 123.308 125.56 123.442C125.576 124.517 126 125.546 126.746 126.321C127.492 127.095 128.505 127.556 129.579 127.611C130.012 127.611 129.579 127.361 130.529 129.929C130.74 130.512 131.014 131.071 131.346 131.596C132.838 134.007 134.669 136.191 136.782 138.082C133.164 142.634 123.209 155.256 119.357 159.125C114.605 163.894 106.735 167.795 99.9322 167.612C97.023 166.64 93.9925 166.079 90.9282 165.944C84.0919 163.944 79.84 160.325 77.4223 153.256C76.0495 148.342 75.167 143.304 74.7878 138.216ZM273.342 281.145C224.654 305.623 89.0274 305.94 30.2848 269.207C15.0947 259.686 4.92357 247.697 2.67258 232.907C-3.6969 191.372 36.721 166.044 76.6719 153.689C77.8352 157.555 80.1646 160.968 83.3415 163.46C81.2488 164.528 79.3808 165.989 77.8391 167.762C72.067 169.686 66.9839 173.256 63.216 178.033C55.6293 178.317 45.9083 180.251 40.1058 185.153C36.1207 188.488 35.1036 192.356 36.771 195.874C38.4384 199.393 41.9399 202.244 47.6258 204.411C22.4813 205.829 12.9271 221.236 30.4849 229.773C35.7363 232.167 41.3945 233.541 47.1589 233.824C41.6731 235.992 38.0882 239.01 36.6709 242.161C35.0035 245.746 36.0373 249.648 40.0057 253.1C48.6095 260.403 65.6504 261.72 77.5223 259.119C76.4387 260.314 75.7248 261.797 75.4674 263.389C75.2099 264.981 75.4198 266.614 76.0717 268.09C77.7391 272.008 82.7413 275.626 90.3613 277.794C105.185 281.996 121.725 278.928 129.429 273.359C131.88 285.931 162.076 291.15 179.651 282.646C184.653 280.245 187.838 276.96 188.538 273.359C196.325 278.994 212.932 281.946 227.605 277.794C235.259 275.643 240.177 272.008 241.912 268.09C242.56 266.616 242.768 264.987 242.511 263.398C242.253 261.809 241.541 260.329 240.461 259.136C252.283 261.72 269.357 260.42 277.978 253.1C282.029 249.665 282.98 245.746 281.312 242.145C279.895 238.96 276.31 235.959 270.958 233.808C276.663 233.496 282.26 232.128 287.465 229.773C305.056 221.236 295.502 205.895 270.791 204.295C276.277 202.127 279.878 199.092 281.296 195.874C282.863 192.306 281.896 188.421 277.877 185.02C272.175 180.201 262.687 178.217 255.084 177.883C251.166 169.146 241.745 163.243 231.624 161.876C227.967 160.437 224.139 159.479 220.235 159.025C222.603 156.671 224.325 153.749 225.238 150.538C249.048 156.257 278.311 166.211 296.202 182.985C331.835 216.4 316.478 259.486 273.342 281.145Z" fill="#0A0A0A"/>
<path fill-rule="evenodd" clip-rule="evenodd" d="M111.453 171.797C123.575 177.466 138.015 184.236 151.954 193.473C153.522 194.507 155.289 195.441 156.957 196.491C170.695 186.627 185.191 177.863 200.309 170.28C182.651 169.112 129.845 171.08 111.453 171.797ZM149.07 52.1108C149.83 52.541 150.687 52.7741 151.56 52.7886C152.434 52.8032 153.297 52.5988 154.072 52.1942C154.228 52.0705 154.329 51.8912 154.355 51.694C154.313 50.0352 154.163 48.381 153.905 46.7418C153.603 44.3389 153.009 41.9817 152.138 39.722C152.116 39.6402 152.062 39.5705 151.988 39.5283C151.915 39.4861 151.828 39.4748 151.746 39.4969C151.664 39.519 151.594 39.5727 151.552 39.6462C151.51 39.7197 151.499 39.8069 151.521 39.8887C151.754 41.4061 152.621 49.493 152.888 51.1771C151.753 51.6444 150.5 51.7493 149.303 51.4772C149.262 51.4619 149.217 51.4549 149.173 51.4566C149.129 51.4584 149.085 51.4689 149.045 51.4875C149.005 51.506 148.969 51.5324 148.938 51.5649C148.908 51.5975 148.885 51.6357 148.87 51.6773C148.854 51.7189 148.847 51.7631 148.849 51.8074C148.851 51.8517 148.861 51.8952 148.88 51.9355C148.898 51.9757 148.925 52.0119 148.957 52.042C148.99 52.0721 149.028 52.0955 149.07 52.1108ZM152.855 51.3605V51.5439C152.855 51.5439 152.838 51.3772 152.855 51.3605ZM142.75 44.9076C143.463 44.6245 144.115 44.2054 144.668 43.6738C144.728 43.6252 144.769 43.5561 144.782 43.4796C144.795 43.4032 144.779 43.3246 144.738 43.2588C144.697 43.193 144.633 43.1446 144.559 43.1228C144.484 43.1009 144.404 43.1071 144.334 43.1402C143.075 43.4655 141.783 43.65 140.483 43.6904C139.178 43.6669 137.878 43.5274 136.598 43.2736C136.561 43.2462 136.519 43.2269 136.475 43.2171C136.43 43.2073 136.384 43.2072 136.34 43.2168C136.295 43.2264 136.254 43.2455 136.217 43.2727C136.181 43.3 136.15 43.3348 136.129 43.3748C136.107 43.4147 136.094 43.4589 136.091 43.5044C136.088 43.5498 136.094 43.5953 136.11 43.638C136.126 43.6806 136.151 43.7192 136.184 43.7513C136.216 43.7834 136.255 43.8081 136.297 43.8238C136.873 44.3141 137.534 44.693 138.248 44.941C139.72 45.3724 141.285 45.3608 142.75 44.9076ZM156.656 42.5733C158.491 44.8243 163.593 44.991 164.777 42.2231C164.801 42.1892 164.818 42.1508 164.827 42.1102C164.836 42.0697 164.838 42.0277 164.831 41.9866C164.824 41.9456 164.809 41.9064 164.787 41.8711C164.764 41.8359 164.736 41.8053 164.702 41.7813C164.668 41.7572 164.629 41.74 164.589 41.7307C164.548 41.7215 164.506 41.7203 164.465 41.7273C164.424 41.7342 164.385 41.7492 164.35 41.7713C164.314 41.7935 164.284 41.8223 164.26 41.8563C163.774 42.2209 163.197 42.4458 162.592 42.5066C161.37 42.74 160.114 42.74 158.891 42.5066C158.257 42.4349 157.635 42.2836 157.04 42.0564C156.74 41.7396 156.34 42.3065 156.656 42.5733ZM147.619 58.8638C148.977 59.3637 150.435 59.5295 151.871 59.3473C152.769 59.3292 153.659 59.1659 154.505 58.8638C154.589 58.8638 154.67 58.8304 154.729 58.771C154.789 58.7116 154.822 58.631 154.822 58.547C154.822 58.463 154.789 58.3824 154.729 58.323C154.67 58.2636 154.589 58.2302 154.505 58.2302C153.666 57.9767 152.797 57.8365 151.921 57.8133C150.484 57.7085 149.039 57.8552 147.652 58.2469C147.607 58.2338 147.559 58.2313 147.512 58.2393C147.465 58.2474 147.42 58.266 147.382 58.2936C147.343 58.3212 147.311 58.3572 147.288 58.3989C147.265 58.4406 147.252 58.4869 147.249 58.5344C147.247 58.5819 147.255 58.6294 147.273 58.6733C147.291 58.7172 147.319 58.7565 147.355 58.7881C147.39 58.8198 147.433 58.843 147.478 58.8561C147.524 58.8692 147.572 58.8718 147.619 58.8638Z" fill="#0A0A0A"/>
</svg>
